<?xml version="1.0" encoding="UTF-8"?>
<!DOCTYPE svg PUBLIC "-//W3C//DTD SVG 1.1//EN" "http://www.w3.org/Graphics/SVG/1.1/DTD/svg11.dtd">
<svg xmlns="http://www.w3.org/2000/svg" version="1.1" width="5002px" height="5000px" style="shape-rendering:geometricPrecision; text-rendering:geometricPrecision; image-rendering:optimizeQuality; fill-rule:evenodd; clip-rule:evenodd" xmlns:xlink="http://www.w3.org/1999/xlink">
<g><path style="opacity:0.997" fill="#000000" d="M 3014.5,-0.5 C 3020.17,-0.5 3025.83,-0.5 3031.5,-0.5C 3044.32,129.63 3031.82,257.297 2994,382.5C 2940.17,557.729 2851.83,712.395 2729,846.5C 2615.07,967.042 2479.9,1055.54 2323.5,1112C 2227.86,1145.25 2129.53,1158.75 2028.5,1152.5C 2015.2,1039.34 2024.36,928.01 2056,818.5C 2113.38,623.124 2213.55,453.958 2356.5,311C 2500.95,174.4 2669.61,79.0665 2862.5,25C 2912.57,12.0442 2963.24,3.54425 3014.5,-0.5 Z"/></g>
<g><path style="opacity:0.999" fill="#000000" d="M 4071.5,3666.5 C 4071.5,3667.5 4071.5,3668.5 4071.5,3669.5C 3994.27,3908.62 3887.1,4132.95 3750,4342.5C 3685.53,4439.79 3617.86,4534.79 3547,4627.5C 3511.87,4671.64 3474.87,4714.31 3436,4755.5C 3375.01,4819.86 3306.51,4874.36 3230.5,4919C 3110.08,4985.13 2981.74,5007.79 2845.5,4987C 2795.24,4980.14 2746.24,4968.14 2698.5,4951C 2675.68,4942.73 2653.01,4934.06 2630.5,4925C 2577.18,4901.51 2523.51,4878.84 2469.5,4857C 2331.4,4804.07 2188.74,4784.74 2041.5,4799C 1949.9,4807.65 1861.23,4828.65 1775.5,4862C 1716.6,4885.78 1657.94,4910.11 1599.5,4935C 1530,4963.71 1458,4983.38 1383.5,4994C 1365.35,4995.91 1347.35,4997.75 1329.5,4999.5C 1309.17,4999.5 1288.83,4999.5 1268.5,4999.5C 1177.74,4991.3 1094.07,4962.47 1017.5,4913C 960.127,4875.65 906.793,4832.99 857.5,4785C 801.676,4729.19 749.509,4670.36 701,4608.5C 610.005,4490.86 524.672,4369.19 445,4243.5C 251.565,3918.28 118.899,3569.28 47,3196.5C 19.6222,3052.6 3.78889,2907.6 -0.5,2761.5C -0.5,2723.5 -0.5,2685.5 -0.5,2647.5C 3.4259,2496.18 24.5926,2347.18 63,2200.5C 107.709,2034.45 178.709,1881.11 276,1740.5C 413.138,1549.69 589.305,1407.19 804.5,1313C 949.09,1252.01 1099.92,1220.85 1257,1219.5C 1344.33,1221.36 1429.83,1234.86 1513.5,1260C 1551.46,1271.48 1589.12,1283.81 1626.5,1297C 1696.23,1323.02 1765.56,1350.02 1834.5,1378C 1888.44,1399.76 1943.77,1417.09 2000.5,1430C 2040.72,1438.84 2081.05,1439.5 2121.5,1432C 2166.79,1422.26 2211.12,1409.26 2254.5,1393C 2316.4,1369.59 2378.07,1345.59 2439.5,1321C 2517.13,1290.68 2596.13,1264.34 2676.5,1242C 2752.2,1221.55 2829.2,1209.22 2907.5,1205C 3102.87,1199.21 3290.21,1234.88 3469.5,1312C 3663.1,1398.59 3820.1,1529.26 3940.5,1704C 3788.54,1800.96 3663.37,1925.13 3565,2076.5C 3440.97,2274.28 3386.97,2489.94 3403,2723.5C 3425.12,3038.92 3556.62,3297.42 3797.5,3499C 3873.91,3561.97 3957.25,3614.64 4047.5,3657C 4055.26,3660.86 4063.26,3664.03 4071.5,3666.5 Z"/></g>
</svg>
